<svg xmlns="http://www.w3.org/2000/svg" xmlns:xlink="http://www.w3.org/1999/xlink" viewBox="0 0 267.5 271.1" enable-background="new 0 0 267.5 271.1"><circle fill="#414042" cx="135.1" cy="134" r="124.8"/><circle fill="#8FC44D" cx="135.1" cy="134" r="115.8"/><path fill="#363335" d="M97.4 139s3-5.1.4-2.5c-2.6 2.5-3.5 2.5-3.5 2.5s1.4 18.7 7.1 19.2c5.7.5 58.7-5.1 58.7-5.1s4 5 7.6 4.6c7.6-1 7.1-20.2 7.1-20.2s-6.6-2.1-6.6-14.3c-.1-9.6-70.8 15.8-70.8 15.8z"/><defs><circle id="a" cx="135.1" cy="135" r="115.8"/></defs><clipPath id="b"><use xlink:href="#a" overflow="visible"/></clipPath><path clip-path="url(#b)" fill="#262328" d="M134.8 168.5c-45.9 0-84.1 24.2-92.6 56.2l34.5 37.2h97.9l52.8-37.2c-8.5-32.1-46.7-56.2-92.6-56.2z"/><path fill="#F3B6A5" d="M175.3 130.8c2.6 8-4 11.3-7.2 11.3-3.3 0-4.9-9.2-4.9-14.7s3.6-9.9 6.9-9.9c3.2 0 12.3.8 5.2 13.3z"/><path fill="#F3B6A5" d="M92.5 130.8c-2.6 8 3 11.3 6.2 11.3 3.3 0 5.9-9.2 5.9-14.7s-3.6-9.9-6.9-9.9c-3.2 0-12.3.8-5.2 13.3z"/><path d="M178.6 91.8l.2 2c0-.1-.1-.7-.2-2zm-1.1-3.3c1.9-.3 4.2-2.1 7.1-6.4 0 0-2.7 2.3-7-5.5-5.4-10-12.5-23-32.2-24.8-19.6-1.9-27.8 9.4-27.8 9.4-10.5-7-24.6 2.8-22.5 14.1-7.7.4-10.3 17.1-4 22.3-5 10.6 2.8 23.5 2.8 23.5l5.1 5.2c7.2 19.8 15.7 29.4 35.6 29.4 18.4 0 28.3-12.4 36.3-28.9.5-1.1 4.8-4.5 5.4-5.7 0 0 6-15.3 3.4-24.3-1.2-3.9-2.2-8.3-2.2-8.3z" fill="#363335"/><g fill="#F3B6A5"><path d="M162.2 172.9c0 15.5-12.4 24.7-27.7 24.7-15.3 0-27.7-9.2-27.7-24.7s12.4-31.3 27.7-31.3c15.3 0 27.7 15.8 27.7 31.3z"/><ellipse cx="134.5" cy="151.6" rx="21.9" ry="22.2"/><rect x="112.6" y="151.6" width="43.9" height="23.8"/></g><path fill="#F3B6A5" d="M162.8 78.4c-5.2-4-22-5.3-30.2-.4-39.5-13.9-31.4 30.9-35.5 34.7v31.7h.1c1.1 19 17.9 37.5 37.4 37.5s36.3-18.5 37.4-37.5h.1l.5-31.3c-3.9-2.8 1.1-26.4-9.8-34.7z"/><ellipse opacity=".85" fill="#EFA09A" cx="111.8" cy="133.3" rx="10" ry="10.2"/><path stroke="#262328" stroke-width="5.323" stroke-miterlimit="10" d="M124.7 125.6c0-3.9 4.3-7.1 9.7-7.1 5.4 0 9.7 3.2 9.7 7.1" fill="none"/><path fill="#262328" d="M130.7 123.2c0 4.4-3.6 8-8 8h-13.9c-4.4 0-8-3.6-8-8v-1.5c0-4.4 3.6-8 8-8h13.9c4.4 0 8 3.6 8 8v1.5z"/><path fill="#363335" d="M101.4 84.3s3.7 1.5 7.9-1.7c5.4-4.2 4.7-9.9 13.7-9.6 5.6.2 9.7 5.2 9.7 5.2s-8.7-3.6-12.6 1.2c-5.4 6.4-11.7 12-18.7 4.9z"/><path fill="#63686B" d="M125.7 117.2c0 .5-.4.9-.9.9h-6.6c-.5 0-.9-.4-.9-.9s.4-.9.9-.9h6.6c.5 0 .9.4.9.9z"/><line stroke="#262328" stroke-width="5.323" stroke-miterlimit="10" x1="165.1" y1="118.8" x2="172.7" y2="118.8" fill="none"/><line stroke="#262328" stroke-width="5.323" stroke-miterlimit="10" x1="96" y1="118.8" x2="103.6" y2="118.8" fill="none"/><path fill="#6C6A66" d="M172.3 120s.4 47.5-15.2 49.6c-9.7 1.3-14.1-3.2-14.1-3.2h-16.1s-6.6 4.8-14.8 3.2c-16.2-3.2-14.8-49.6-14.8-49.6s-1.3.3-1.4.4l1.2 23.2c.7 19.9 15.3 43.6 37.4 43.6 22.8 0 36.7-23.7 37.4-43.6l1.5-22.3c0-.1-1.1-1.3-1.1-1.3z"/><path fill="#fff" d="M119.4 147.6s3 6.3 15.6 6.3l15-6.3h-30.6z"/><path fill="#6C6A66" d="M130 156.3h-.3l4.7 4.8 4.5-4.6c-1.2.2-2.5.3-3.9.3-1.8 0-3.5-.2-5-.5z"/><path fill="#6C6A66" d="M138.3 140c-.5-.8-2.2-.4-3.6-.3-1.4-.1-3.2-.5-3.6.3-2.5 4.6-14.7 3.5-14.5 6.3h36.2c-.6-3.1-11.3-1.7-14.5-6.3z"/><path fill="#D48E87" d="M122.5 135.9h23.5s-3.5 3.9-11.4 3.9c-7.8 0-12.1-3.9-12.1-3.9z"/><path fill="#262328" d="M128 138.1c1.8 0 3.3-1 3.4-2.2h-6.9c.2 1.2 1.7 2.2 3.5 2.2z"/><path fill="#262328" d="M141.5 138.1c1.8 0 3.3-1 3.4-2.2h-6.9c.2 1.2 1.7 2.2 3.5 2.2z"/><ellipse opacity=".85" fill="#EFA09A" cx="157.2" cy="133.3" rx="10" ry="10.2"/><path fill="#262328" d="M168.1 123.2c0 4.4-3.6 8-8 8h-13.9c-4.4 0-8-3.6-8-8v-1.5c0-4.4 3.6-8 8-8h13.9c4.4 0 8 3.6 8 8v1.5z"/><path fill="#63686B" d="M163.8 117.2c0 .5-.4.9-.9.9h-6.6c-.5 0-.9-.4-.9-.9s.4-.9.9-.9h6.6c.5 0 .9.4.9.9z"/><path fill="#555356" d="M146.9 172.9c-3.9 1.8-8.1 2.8-12.6 2.8s-8.7-1-12.6-2.8c0 0 3.9 5.4 12.6 5.4l12.6-5.4z"/><path fill="#363335" d="M115.9 106.7c-7.4 0-10.4 2.3-12.1 5.4h24.2c-1.7-3.1-6.5-5.4-12.1-5.4z"/><path fill="#363335" d="M153.3 106.7c-5.6 0-10.4 2.3-12.1 5.4h24.2c-1.8-3.1-4.9-5.4-12.1-5.4z"/></svg>